# xmcd
#
# Track frame offsets: 
#        150
#        9647
#        21792
#        33339
#        45770
#        56620
#        73211
#        76711
#        87303
#        107259
#
# Disc length: 1537 seconds
#
# Revision: 3
# Processed by: cddbd v1.5.2PL0 Copyright (c) Steve Scherf et al.
# Submitted via: ExactAudioCopy v0.99pb5
#
DISCID=6a05ff0a
DTITLE=J. Dilla - Ruff Draft [CD2] (Instrumentals)
DYEAR=2007
DGENRE=Hip-Hop
TTITLE0=Let's Take It Back (Instrumental)
TTITLE1=Reckless Driving (Instrumental)
TTITLE2=Nothing Like This (Instrumental)
TTITLE3=The $ (Instrumental)
TTITLE4=Make'em NV (Instrumental)
TTITLE5=Crushin' (Instrumental)
TTITLE6=Intro (Alt) (Instrumental)
TTITLE7=Wild (Instrumental)
TTITLE8=Take Notice (Instrumental)
TTITLE9=Shoults (Alt) (Instrumental)
EXTD=YEAR: 2007
EXTT0=
EXTT1=
EXTT2=
EXTT3=
EXTT4=
EXTT5=
EXTT6=
EXTT7=
EXTT8=
EXTT9=
PLAYORDER=
